<?xml version="1.0" standalone="no"?><!DOCTYPE svg PUBLIC "-//W3C//DTD SVG 1.1//EN" "http://www.w3.org/Graphics/SVG/1.1/DTD/svg11.dtd"><svg class="icon" height="512" viewBox="0 0 1024 1024" version="1.1" xmlns="http://www.w3.org/2000/svg"><path d="M512 0C230.4 0 0 230.4 0 512s230.4 512 512 512 512-230.4 512-512S793.6 0 512 0z m0 994.816c-266.752 0-482.816-215.552-482.816-482.816S245.248 29.184 512 29.184s482.816 215.552 482.816 482.816-216.064 482.816-482.816 482.816zM713.728 776.192H310.272c-17.92 0-32.768-14.848-32.768-32.768V475.136c0-17.92 14.848-32.768 32.768-32.768h402.944c17.92 0 32.768 14.848 32.768 32.768v268.288c0.512 17.92-14.336 32.768-32.256 32.768zM310.272 473.088c-1.024 0-1.536 0.512-1.536 1.536v268.288c0 1.024 1.024 1.536 1.536 1.536h402.944c1.024 0 1.536-0.512 1.536-1.536V475.136c0-1.024-1.024-1.536-1.536-1.536 0.512-0.512-402.944-0.512-402.944-0.512zM758.784 473.088H265.216c-17.92 0-32.768-14.848-32.768-32.768v-44.544c0-17.92 14.848-32.768 32.768-32.768h493.056c17.92 0 32.768 14.848 32.768 32.768V440.32c0.512 18.432-14.336 32.768-32.256 32.768zM265.216 394.24c-1.024 0-1.536 0.512-1.536 1.536V440.32c0 1.024 1.024 1.536 1.536 1.536h493.056c1.024 0 1.536-1.024 1.536-1.536v-44.544c0-1.024-1.024-1.536-1.536-1.536H265.216zM512 770.048c-8.704 0-15.36-7.168-15.36-15.36v-363.52c0-8.704 7.168-15.36 15.36-15.36 8.704 0 15.36 7.168 15.36 15.36v363.52c0 8.192-6.656 15.36-15.36 15.36zM634.88 393.728c-6.144 0-11.776-3.584-14.336-9.216-3.584-7.68 0-16.896 8.192-20.48 13.312-5.632 26.112-12.8 34.304-17.92l6.656-3.584c15.36-8.192 24.064-24.576 22.016-39.936-1.024-7.168-4.608-29.184-54.784-22.528-84.992 11.264-110.08 95.744-111.104 99.328-2.56 8.192-10.752 12.8-19.456 10.752-8.192-2.56-12.8-10.752-10.752-18.944 1.024-4.608 31.744-107.52 137.216-121.344 72.192-9.728 86.528 30.72 89.088 48.64 4.608 28.672-10.752 57.344-37.888 72.192l-6.144 3.584c-9.216 5.12-22.528 12.8-37.376 19.456H634.88zM389.632 393.728c-2.048 0-4.096-0.512-6.144-1.536-14.336-6.144-28.16-14.336-37.376-19.456l-6.144-3.584c-27.136-14.336-41.984-43.52-37.888-72.192 2.56-17.92 16.896-57.856 89.6-48.64 105.472 13.824 135.68 117.248 137.216 121.344 2.56 8.192-2.56 16.896-10.752 18.944-8.192 2.56-16.896-2.56-18.944-10.752-1.024-3.584-26.112-88.064-111.104-99.328-50.176-6.656-53.248 15.36-54.784 22.528-2.56 15.36 6.144 31.744 22.016 39.936l6.656 3.584c8.704 4.608 21.504 12.288 34.304 17.92 7.68 3.584 11.264 12.8 8.192 20.48-3.072 7.68-8.704 10.752-14.848 10.752z" /></svg>