<?xml version="1.0" standalone="no"?><!DOCTYPE svg PUBLIC "-//W3C//DTD SVG 1.1//EN" "http://www.w3.org/Graphics/SVG/1.1/DTD/svg11.dtd"><svg class="icon" height="512" viewBox="0 0 1164 1024" version="1.1" xmlns="http://www.w3.org/2000/svg"><path d="M724.112461 1010.863842h-90.19432c-34.264695 0-62.131594-27.151709-62.131594-60.505387v-10.045512c-36.303232 4.432237-73.731552 5.183917-109.78544 2.287881l-14.745337 32.335626c-10.09903 21.877785-32.370899 35.927392-56.787124 35.927392h-90.588405c-34.265911 0-62.131594-27.151709-62.131595-60.505387v-79.237791C167.931183 827.990279 114.87935 768.307119 86.584309 701.009852l-55.482022-27.633368C11.887007 663.759113 0 644.759121 0 623.75708v-106.710606c0-30.709418 25.560774-55.679065 56.965922-55.679065l32.085066 0.107035c18.71416-42.058815 47.206243-81.258084 83.562992-114.986385l-31.369874-61.381131c-8.257535-16.302215-7.899939-35.462761 0.893988-51.370891 9.062733-16.373978 25.793089-27.186982 44.757809-28.921441a486.346786 486.346786 0 0 1 45.275958-2.144356c60.630667 0 113.681284 11.29588 157.9027 33.621266 36.035644-7.667624 73.55397-11.54644 111.69748-11.54644 89.980249 0 183.714034 22.592975 250.743713 60.433625 27.972719 15.264702 54.159893 33.478958 77.485087 53.96285 65.206428 57.198237 105.370231 135.560285 113.020827 220.660694 4.701042 52.604231-3.718262 105.958926-24.362708 154.309718-31.38812 73.392201-71.712476 144.514766-110.714701 213.314176-9.813196 17.320267-19.626393 34.587017-29.242547 51.853767-10.921256 19.499897-31.834506 31.583946-54.589251 31.583946z m-98.68417-133.897588v73.392201c0 3.735291 3.895844 6.881887 8.508095 6.881888h90.19432c3.324178 0 6.363739-1.609179 7.775876-4.111131 9.669672-17.320267 19.518141-34.712297 29.4031-52.139601 38.287035-67.494309 77.843899-137.293528 108.05098-207.916188 17.177959-40.217321 24.18391-84.635779 20.251577-128.446082-6.41604-71.301362-40.145558-137.061212-94.984152-185.161444-20.376857-17.873689-43.292155-33.818309-68.137738-47.366796-59.683161-33.694245-143.568476-53.695262-224.718308-53.695262-37.536571 0-74.339707 4.146404-109.391355 12.351637l-10.080785 2.359644-9.044488-5.023365c-47.260977-26.25772-102.796517-31.762743-141.083552-31.762743-13.316172 0-26.882904 0.643428-40.307328 1.895013-1.733243 0.160553-2.466679 0.892772-2.787784 1.482683l50.56691 100.044005-16.481013 13.727285c-42.308159 35.176928-73.768041 78.165005-90.998301 124.281434l-6.542537 17.499065-68.512361-0.25056c-2.306126-0.017028-3.485947 1.358619-3.485947 2.055565v106.710606c0 0.554638 0.571666 1.216311 1.44741 1.644453l73.983327 36.82138 3.717047 9.813197c24.345679 64.06188 75.860096 121.081319 145.087648 160.531147l13.531459 7.721142v110.071273c0 3.735291 3.895844 6.881887 8.508095 6.881887h90.587188c3.52122 0 6.756607-1.876768 8.043464-4.665768l30.761719-67.476065 19.430567 2.306125c46.937438 5.576786 97.629629 4.021124 145.051159-4.665768l31.655708-5.790857zM277.930694 535.832396z m-46.634577 0c0 25.755384 20.879193 46.634577 46.634577 46.634577s46.634577-20.879193 46.634577-46.634577-20.879193-46.634577-46.634577-46.634577-46.634577 20.879193-46.634577 46.634577M835.595871 292.095851c-3.181869 0-6.399012-0.571666-9.562636-1.769732-13.835537-5.272708-20.769725-20.78797-15.479989-34.622291 5.63152-14.746554 8.669864-30.315333 9.044488-46.241708 1.734459-76.216475-58.859718-139.617898-135.059165-141.351141-63.650767-1.787977-120.062051 40.556671-136.631854 102.151872-3.843543 14.300167-18.590096 22.719472-32.853775 18.929447-14.298951-3.842326-22.771773-18.553607-18.929446-32.853774 23.005305-85.528551 100.241048-143.692539 189.648414-141.8328 105.7631 2.394916 189.845457 90.408391 187.449325 196.17149-0.499904 22.093072-4.736315 43.667995-12.547463 64.151887-4.111131 10.707185-14.281923 17.26675-25.077899 17.26675zM914.591616 683.699315c11.286149 7.509504 23.007737 12.866137 35.138007 15.985974a104.521246 104.521246 0 0 0 21.999415 3.217142c40.143126 1.570257 70.85376-20.275903 85.550445-33.40233 26.87439 14.73439 55.426072 20.391453 82.958486 16.367896 15.692843-2.293962 26.558149-16.876314 24.264187-32.572806-2.292746-15.697709-16.871449-26.561798-32.572807-24.267836-11.784836 1.72108-23.460205 0.038922-34.534715-4.040585 7.884127-10.305802 15.045766-21.1407 20.882842-32.611728 15.961648-31.385687 19.39651-63.351554 10.206065-94.995099-9.411814-32.480367-36.759349-57.704223-68.053813-62.777456-30.283709-4.904166-59.348675 9.265857-79.755939 38.893975-23.491829 34.158876-20.049669 84.356028 8.983672 131.002767a194.281343 194.281343 0 0 0 21.521406 28.337612c-8.984889 6.341845-22.313224 13.246842-37.209384 12.664229-17.068491-0.665322-34.261046-11.308043-51.12763-31.587594m128.062945-22.807046a138.20941 138.20941 0 0 1-12.475702-16.962673c-16.269375-26.139738-20.455917-53.506734-10.433515-68.081787 7.615323-11.056266 15.438635-16.020031 23.251-14.753851 0.536393 0.086358 1.074003 0.199475 1.611612 0.336918 8.829201 2.270852 17.430952 11.298312 20.457133 21.737909 7.749117 26.688294-1.370782 50.564478-22.410528 77.723484z" /></svg>